<svg width="18" height="18" viewBox="0 0 18 18" fill="none" xmlns="http://www.w3.org/2000/svg">
<g clip-path="url(#clip0_1_449)">
<path d="M5.27344 4.21875L5.27344 2.8125C5.27344 1.26164 6.53508 -9.08127e-07 8.08594 -1.04371e-06L15.1523 -1.66147e-06C16.7032 -1.79705e-06 17.9648 1.26164 17.9648 2.8125L17.9648 15.1875C17.9648 16.7384 16.7032 18 15.1523 18L8.08594 18C6.53508 18 5.27344 16.7384 5.27344 15.1875L5.27344 13.7813C5.27344 13.3929 5.5882 13.0781 5.97656 13.0781C6.36493 13.0781 6.67969 13.3929 6.67969 13.7813L6.67969 15.1875C6.67969 15.9629 7.31058 16.5938 8.08594 16.5938L15.1523 16.5938C15.9277 16.5938 16.5586 15.9629 16.5586 15.1875L16.5586 2.8125C16.5586 2.03714 15.9277 1.40625 15.1523 1.40625L8.08594 1.40625C7.31058 1.40625 6.67969 2.03714 6.67969 2.8125L6.67969 4.21875C6.67969 4.60712 6.36493 4.92188 5.97656 4.92188C5.5882 4.92188 5.27344 4.60712 5.27344 4.21875ZM0.479692 10.2078L2.05417 11.7823C2.32883 12.0569 2.77405 12.0569 3.04857 11.7823C3.32323 11.5078 3.32323 11.0625 3.04857 10.788L1.92865 9.66797L10.3711 9.66797C10.7595 9.66797 11.0742 9.35321 11.0742 8.96484C11.0742 8.57648 10.7595 8.26172 10.3711 8.26172L1.92865 8.26172L3.04857 7.14166C3.32323 6.86714 3.32323 6.42192 3.04857 6.1474C2.91124 6.01007 2.73134 5.94141 2.55144 5.94141C2.3714 5.94141 2.1915 6.01007 2.05417 6.1474L0.479692 7.72188C-0.205718 8.40729 -0.205718 9.5224 0.479692 10.2078Z" fill="#FF3BA6"/>
</g>
<defs>
<clipPath id="clip0_1_449">
<rect width="18" height="18" fill="white" transform="translate(18 18) rotate(180)"/>
</clipPath>
</defs>
</svg>
