<svg width="59" height="58" viewBox="0 0 59 58" fill="none" xmlns="http://www.w3.org/2000/svg">
<circle cx="29.8334" cy="29" r="29" fill="#FF3CA6"/>
<g clip-path="url(#clip0_1_436)">
<path d="M15.2888 13.7373C15.2877 13.7373 15.2865 13.7373 15.2853 13.7373C14.8918 13.7373 14.5217 13.8907 14.2422 14.1695C13.9596 14.4514 13.804 14.8267 13.804 15.2263V37.5528C13.804 38.3716 14.4726 39.0393 15.2947 39.0414C18.7605 39.0496 24.5669 39.772 28.5726 43.9638V20.5984C28.5726 20.3209 28.5017 20.0602 28.3679 19.8444C25.0802 14.5499 18.7624 13.7454 15.2888 13.7373Z" fill="white"/>
<path d="M45.6528 37.553V15.2263C45.6528 14.8267 45.4971 14.4514 45.2145 14.1695C44.935 13.8907 44.5646 13.7373 44.1715 13.7373C44.1702 13.7373 44.169 13.7373 44.1679 13.7373C40.6944 13.7456 34.3766 14.55 31.0888 19.8446C30.955 20.0603 30.8843 20.321 30.8843 20.5986V43.9638C34.8899 39.772 40.6964 39.0496 44.1621 39.0414C44.9841 39.0393 45.6528 38.3716 45.6528 37.553Z" fill="white"/>
<path d="M49.044 18.8867H47.9644V37.5533C47.9644 39.6437 46.2613 41.3483 44.1677 41.3535C41.228 41.3605 36.3809 41.9353 32.9481 45.1843C38.8852 43.7306 45.1439 44.6756 48.7107 45.4884C49.1561 45.5899 49.6163 45.4851 49.9731 45.2007C50.3287 44.917 50.5327 44.4929 50.5327 44.0377V20.3753C50.5328 19.5545 49.8648 18.8867 49.044 18.8867Z" fill="white"/>
<path d="M11.4922 37.5533V18.8867H10.4126C9.59193 18.8867 8.92395 19.5545 8.92395 20.3753V44.0373C8.92395 44.4926 9.12793 44.9166 9.4835 45.2003C9.84005 45.4845 10.2998 45.5897 10.7459 45.488C14.3128 44.675 20.5716 43.7302 26.5084 45.1839C23.0757 41.935 18.2286 41.3603 15.289 41.3533C13.1955 41.3483 11.4922 39.6437 11.4922 37.5533Z" fill="white"/>
</g>
<defs>
<clipPath id="clip0_1_436">
<rect width="41.6087" height="41.6087" fill="white" transform="translate(8.92395 8.82611)"/>
</clipPath>
</defs>
</svg>
